<svg xmlns="http://www.w3.org/2000/svg" viewBox="0 0 100 100" width="100%" height="100%">
  <defs>
    <radialGradient id="bg" cx="50%" cy="38%" r="75%">
      <stop offset="0%" stop-color="#17784a"/>
      <stop offset="55%" stop-color="#0f5132"/>
      <stop offset="100%" stop-color="#0a3622"/>
    </radialGradient>
    <linearGradient id="gold" x1="0" y1="0" x2="1" y2="1">
      <stop offset="0%" stop-color="#F4CD6E"/>
      <stop offset="55%" stop-color="#E5A93C"/>
      <stop offset="100%" stop-color="#B87C17"/>
    </linearGradient>
  </defs>
  <rect width="100" height="100" rx="22" fill="url(#bg)"/>
  <g transform="translate(13 13) scale(0.74)">
    <path d="M21.6 7.1 32.6 5.9 42.4 5.5 41.4 9.5 45.4 10.8 52.6 14 53.9 11.8 60.1 12.3 67.6 12.5 69.5 14.4 75.4 27.4 78.3 32.4 83 36.3 85.1 38.9 93 37.1 93.1 38.9 85.4 49.4 78.5 56.9 78 60.4 79.5 65.6 72.4 76.6 69.6 84.4 67.6 89.3 60.9 94.4 53.9 95.4 51.9 94.4 47 80.6 45.6 67.6 45.4 62.9 44.3 59.4 40.6 51.4 41 46.9 36.4 46.5 33.1 43.9 28.9 44.9 26.4 46 23.9 45.3 19.3 46.4 15.4 44 12.4 41.3 8.9 37.5 7 33.5 8.9 29.4 7.6 25.9 10.8 19.4 16.9 13.9 19.4 9.9Z" fill="url(#gold)" stroke="url(#gold)" stroke-width="3" stroke-linejoin="round"/>
    <ellipse cx="88" cy="75" rx="2.6" ry="7.5" transform="rotate(18 88 75)" fill="#D19A2E"/>
    <g fill="none" stroke="#0F5132" stroke-width="5" stroke-linecap="round" stroke-linejoin="round">
      <path d="M31 24h7l7 22h22l6-15H42"/>
      <path d="M50 31l2 15M60 31l-1 15" stroke-width="3"/>
    </g>
    <circle cx="49" cy="53" r="3.6" fill="#0F5132"/>
    <circle cx="64" cy="53" r="3.6" fill="#0F5132"/>
  </g>
</svg>